<svg width="31" height="30" viewBox="0 0 31 30" fill="none" xmlns="http://www.w3.org/2000/svg">
<g clip-path="url(#clip0_673_2915)">
<path d="M30.0835 0H0.0834961V30H30.0835V0Z" fill="white"/>
<path d="M2.75395 1.875H1.9585V2.67045H2.75395V1.875Z" fill="black"/>
<path d="M3.54941 1.875H2.75395V2.67045H3.54941V1.875Z" fill="black"/>
<path d="M4.34486 1.875H3.54941V2.67045H4.34486V1.875Z" fill="black"/>
<path d="M5.14031 1.875H4.34486V2.67045H5.14031V1.875Z" fill="black"/>
<path d="M5.93577 1.875H5.14031V2.67045H5.93577V1.875Z" fill="black"/>
<path d="M6.73122 1.875H5.93577V2.67045H6.73122V1.875Z" fill="black"/>
<path d="M7.52668 1.875H6.73122V2.67045H7.52668V1.875Z" fill="black"/>
<path d="M9.11759 1.875H8.32213V2.67045H9.11759V1.875Z" fill="black"/>
<path d="M9.91304 1.875H9.11759V2.67045H9.91304V1.875Z" fill="black"/>
<path d="M10.7085 1.875H9.91304V2.67045H10.7085V1.875Z" fill="black"/>
<path d="M12.2994 1.875H11.504V2.67045H12.2994V1.875Z" fill="black"/>
<path d="M13.0949 1.875H12.2994V2.67045H13.0949V1.875Z" fill="black"/>
<path d="M14.6858 1.875H13.8903V2.67045H14.6858V1.875Z" fill="black"/>
<path d="M16.2767 1.875H15.4812V2.67045H16.2767V1.875Z" fill="black"/>
<path d="M17.8676 1.875H17.0721V2.67045H17.8676V1.875Z" fill="black"/>
<path d="M18.663 1.875H17.8676V2.67045H18.663V1.875Z" fill="black"/>
<path d="M20.254 1.875H19.4585V2.67045H20.254V1.875Z" fill="black"/>
<path d="M21.8449 1.875H21.0494V2.67045H21.8449V1.875Z" fill="black"/>
<path d="M23.4358 1.875H22.6403V2.67045H23.4358V1.875Z" fill="black"/>
<path d="M24.2312 1.875H23.4358V2.67045H24.2312V1.875Z" fill="black"/>
<path d="M25.0267 1.875H24.2312V2.67045H25.0267V1.875Z" fill="black"/>
<path d="M25.8221 1.875H25.0267V2.67045H25.8221V1.875Z" fill="black"/>
<path d="M26.6176 1.875H25.8221V2.67045H26.6176V1.875Z" fill="black"/>
<path d="M27.413 1.875H26.6176V2.67045H27.413V1.875Z" fill="black"/>
<path d="M28.2085 1.875H27.413V2.67045H28.2085V1.875Z" fill="black"/>
<path d="M2.75395 2.67045H1.9585V3.46591H2.75395V2.67045Z" fill="black"/>
<path d="M7.52668 2.67045H6.73122V3.46591H7.52668V2.67045Z" fill="black"/>
<path d="M9.91304 2.67045H9.11759V3.46591H9.91304V2.67045Z" fill="black"/>
<path d="M10.7085 2.67045H9.91304V3.46591H10.7085V2.67045Z" fill="black"/>
<path d="M11.504 2.67045H10.7085V3.46591H11.504V2.67045Z" fill="black"/>
<path d="M15.4812 2.67045H14.6858V3.46591H15.4812V2.67045Z" fill="black"/>
<path d="M17.8676 2.67045H17.0721V3.46591H17.8676V2.67045Z" fill="black"/>
<path d="M18.663 2.67045H17.8676V3.46591H18.663V2.67045Z" fill="black"/>
<path d="M19.4585 2.67045H18.663V3.46591H19.4585V2.67045Z" fill="black"/>
<path d="M20.254 2.67045H19.4585V3.46591H20.254V2.67045Z" fill="black"/>
<path d="M21.0494 2.67045H20.254V3.46591H21.0494V2.67045Z" fill="black"/>
<path d="M23.4358 2.67045H22.6403V3.46591H23.4358V2.67045Z" fill="black"/>
<path d="M28.2085 2.67045H27.413V3.46591H28.2085V2.67045Z" fill="black"/>
<path d="M2.75395 3.46591H1.9585V4.26136H2.75395V3.46591Z" fill="black"/>
<path d="M4.34486 3.46591H3.54941V4.26136H4.34486V3.46591Z" fill="black"/>
<path d="M5.14031 3.46591H4.34486V4.26136H5.14031V3.46591Z" fill="black"/>
<path d="M5.93577 3.46591H5.14031V4.26136H5.93577V3.46591Z" fill="black"/>
<path d="M7.52668 3.46591H6.73122V4.26136H7.52668V3.46591Z" fill="black"/>
<path d="M9.91304 3.46591H9.11759V4.26136H9.91304V3.46591Z" fill="black"/>
<path d="M10.7085 3.46591H9.91304V4.26136H10.7085V3.46591Z" fill="black"/>
<path d="M11.504 3.46591H10.7085V4.26136H11.504V3.46591Z" fill="black"/>
<path d="M13.0949 3.46591H12.2994V4.26136H13.0949V3.46591Z" fill="black"/>
<path d="M13.8903 3.46591H13.0949V4.26136H13.8903V3.46591Z" fill="black"/>
<path d="M14.6858 3.46591H13.8903V4.26136H14.6858V3.46591Z" fill="black"/>
<path d="M15.4812 3.46591H14.6858V4.26136H15.4812V3.46591Z" fill="black"/>
<path d="M17.8676 3.46591H17.0721V4.26136H17.8676V3.46591Z" fill="black"/>
<path d="M18.663 3.46591H17.8676V4.26136H18.663V3.46591Z" fill="black"/>
<path d="M19.4585 3.46591H18.663V4.26136H19.4585V3.46591Z" fill="black"/>
<path d="M20.254 3.46591H19.4585V4.26136H20.254V3.46591Z" fill="black"/>
<path d="M21.0494 3.46591H20.254V4.26136H21.0494V3.46591Z" fill="black"/>
<path d="M23.4358 3.46591H22.6403V4.26136H23.4358V3.46591Z" fill="black"/>
<path d="M25.0267 3.46591H24.2312V4.26136H25.0267V3.46591Z" fill="black"/>
<path d="M25.8221 3.46591H25.0267V4.26136H25.8221V3.46591Z" fill="black"/>
<path d="M26.6176 3.46591H25.8221V4.26136H26.6176V3.46591Z" fill="black"/>
<path d="M28.2085 3.46591H27.413V4.26136H28.2085V3.46591Z" fill="black"/>
<path d="M2.75395 4.26136H1.9585V5.05682H2.75395V4.26136Z" fill="black"/>
<path d="M4.34486 4.26136H3.54941V5.05682H4.34486V4.26136Z" fill="black"/>
<path d="M5.14031 4.26136H4.34486V5.05682H5.14031V4.26136Z" fill="black"/>
<path d="M5.93577 4.26136H5.14031V5.05682H5.93577V4.26136Z" fill="black"/>
<path d="M7.52668 4.26136H6.73122V5.05682H7.52668V4.26136Z" fill="black"/>
<path d="M9.11759 4.26136H8.32213V5.05682H9.11759V4.26136Z" fill="black"/>
<path d="M10.7085 4.26136H9.91304V5.05682H10.7085V4.26136Z" fill="black"/>
<path d="M11.504 4.26136H10.7085V5.05682H11.504V4.26136Z" fill="black"/>
<path d="M15.4812 4.26136H14.6858V5.05682H15.4812V4.26136Z" fill="black"/>
<path d="M17.0721 4.26136H16.2767V5.05682H17.0721L17.0721 4.26136Z" fill="black"/>
<path d="M18.663 4.26136H17.8676V5.05682H18.663V4.26136Z" fill="black"/>
<path d="M20.254 4.26136H19.4585V5.05682H20.254V4.26136Z" fill="black"/>
<path d="M23.4358 4.26136H22.6403V5.05682H23.4358V4.26136Z" fill="black"/>
<path d="M25.0267 4.26136H24.2312V5.05682H25.0267V4.26136Z" fill="black"/>
<path d="M25.8221 4.26136H25.0267V5.05682H25.8221V4.26136Z" fill="black"/>
<path d="M26.6176 4.26136H25.8221V5.05682H26.6176V4.26136Z" fill="black"/>
<path d="M28.2085 4.26136H27.413V5.05682H28.2085V4.26136Z" fill="black"/>
<path d="M2.75395 5.05682H1.9585V5.85227H2.75395V5.05682Z" fill="black"/>
<path d="M4.34486 5.05682H3.54941V5.85227H4.34486V5.05682Z" fill="black"/>
<path d="M5.14031 5.05682H4.34486V5.85227H5.14031V5.05682Z" fill="black"/>
<path d="M5.93577 5.05682H5.14031V5.85227H5.93577V5.05682Z" fill="black"/>
<path d="M7.52668 5.05682H6.73122V5.85227H7.52668V5.05682Z" fill="black"/>
<path d="M10.7085 5.05682H9.91304V5.85227H10.7085V5.05682Z" fill="black"/>
<path d="M11.504 5.05682H10.7085V5.85227H11.504V5.05682Z" fill="black"/>
<path d="M12.2994 5.05682H11.504V5.85227H12.2994V5.05682Z" fill="black"/>
<path d="M13.0949 5.05682H12.2994V5.85227H13.0949V5.05682Z" fill="black"/>
<path d="M13.8903 5.05682H13.0949V5.85227H13.8903V5.05682Z" fill="black"/>
<path d="M15.4812 5.05682H14.6858V5.85227H15.4812V5.05682Z" fill="black"/>
<path d="M17.8676 5.05682H17.0721L17.0721 5.85227H17.8676V5.05682Z" fill="black"/>
<path d="M21.0494 5.05682H20.254V5.85227H21.0494V5.05682Z" fill="black"/>
<path d="M21.8449 5.05682H21.0494V5.85227H21.8449V5.05682Z" fill="black"/>
<path d="M23.4358 5.05682H22.6403V5.85227H23.4358V5.05682Z" fill="black"/>
<path d="M25.0267 5.05682H24.2312V5.85227H25.0267V5.05682Z" fill="black"/>
<path d="M25.8221 5.05682H25.0267V5.85227H25.8221V5.05682Z" fill="black"/>
<path d="M26.6176 5.05682H25.8221V5.85227H26.6176V5.05682Z" fill="black"/>
<path d="M28.2085 5.05682H27.413V5.85227H28.2085V5.05682Z" fill="black"/>
<path d="M2.75395 5.85227H1.9585V6.64773H2.75395V5.85227Z" fill="black"/>
<path d="M7.52668 5.85227H6.73122V6.64773H7.52668V5.85227Z" fill="black"/>
<path d="M9.11759 5.85227H8.32213V6.64773H9.11759V5.85227Z" fill="black"/>
<path d="M10.7085 5.85227H9.91304V6.64773H10.7085V5.85227Z" fill="black"/>
<path d="M11.504 5.85227H10.7085V6.64773H11.504V5.85227Z" fill="black"/>
<path d="M13.0949 5.85227H12.2994V6.64773H13.0949V5.85227Z" fill="black"/>
<path d="M13.8903 5.85227H13.0949V6.64773H13.8903V5.85227Z" fill="black"/>
<path d="M14.6858 5.85227H13.8903V6.64773H14.6858V5.85227Z" fill="black"/>
<path d="M15.4812 5.85227H14.6858V6.64773H15.4812V5.85227Z" fill="black"/>
<path d="M16.2767 5.85227H15.4812V6.64773H16.2767V5.85227Z" fill="black"/>
<path d="M17.0721 5.85227H16.2767V6.64773H17.0721L17.0721 5.85227Z" fill="black"/>
<path d="M20.254 5.85227H19.4585V6.64773H20.254V5.85227Z" fill="black"/>
<path d="M21.0494 5.85227H20.254V6.64773H21.0494V5.85227Z" fill="black"/>
<path d="M23.4358 5.85227H22.6403V6.64773H23.4358V5.85227Z" fill="black"/>
<path d="M28.2085 5.85227H27.413V6.64773H28.2085V5.85227Z" fill="black"/>
<path d="M2.75395 6.64773H1.9585V7.44318H2.75395V6.64773Z" fill="black"/>
<path d="M3.54941 6.64773H2.75395V7.44318H3.54941V6.64773Z" fill="black"/>
<path d="M4.34486 6.64773H3.54941V7.44318H4.34486V6.64773Z" fill="black"/>
<path d="M5.14031 6.64773H4.34486V7.44318H5.14031V6.64773Z" fill="black"/>
<path d="M5.93577 6.64773H5.14031V7.44318H5.93577V6.64773Z" fill="black"/>
<path d="M6.73122 6.64773H5.93577V7.44318H6.73122V6.64773Z" fill="black"/>
<path d="M7.52668 6.64773H6.73122V7.44318H7.52668V6.64773Z" fill="black"/>
<path d="M9.11759 6.64773H8.32213V7.44318H9.11759V6.64773Z" fill="black"/>
<path d="M10.7085 6.64773H9.91304V7.44318H10.7085V6.64773Z" fill="black"/>
<path d="M12.2994 6.64773H11.504V7.44318H12.2994V6.64773Z" fill="black"/>
<path d="M13.8903 6.64773H13.0949V7.44318H13.8903V6.64773Z" fill="black"/>
<path d="M15.4812 6.64773H14.6858V7.44318H15.4812V6.64773Z" fill="black"/>
<path d="M17.0721 6.64773H16.2767V7.44318H17.0721V6.64773Z" fill="black"/>
<path d="M18.663 6.64773H17.8676V7.44318H18.663V6.64773Z" fill="black"/>
<path d="M20.254 6.64773H19.4585V7.44318H20.254V6.64773Z" fill="black"/>
<path d="M21.8449 6.64773H21.0494V7.44318H21.8449V6.64773Z" fill="black"/>
<path d="M23.4358 6.64773H22.6403V7.44318H23.4358V6.64773Z" fill="black"/>
<path d="M24.2312 6.64773H23.4358V7.44318H24.2312V6.64773Z" fill="black"/>
<path d="M25.0267 6.64773H24.2312V7.44318H25.0267V6.64773Z" fill="black"/>
<path d="M25.8221 6.64773H25.0267V7.44318H25.8221V6.64773Z" fill="black"/>
<path d="M26.6176 6.64773H25.8221V7.44318H26.6176V6.64773Z" fill="black"/>
<path d="M27.413 6.64773H26.6176V7.44318H27.413V6.64773Z" fill="black"/>
<path d="M28.2085 6.64773H27.413V7.44318H28.2085V6.64773Z" fill="black"/>
<path d="M9.91304 7.44318H9.11759V8.23864H9.91304V7.44318Z" fill="black"/>
<path d="M13.0949 7.44318H12.2994V8.23864H13.0949V7.44318Z" fill="black"/>
<path d="M13.8903 7.44318H13.0949V8.23864H13.8903V7.44318Z" fill="black"/>
<path d="M16.2767 7.44318H15.4812V8.23864H16.2767V7.44318Z" fill="black"/>
<path d="M17.0721 7.44318H16.2767V8.23864H17.0721V7.44318Z" fill="black"/>
<path d="M17.8676 7.44318H17.0721V8.23864H17.8676V7.44318Z" fill="black"/>
<path d="M20.254 7.44318H19.4585V8.23864H20.254V7.44318Z" fill="black"/>
<path d="M21.0494 7.44318H20.254V8.23864H21.0494V7.44318Z" fill="black"/>
<path d="M6.73122 8.23864H5.93577V9.03409H6.73122V8.23864Z" fill="black"/>
<path d="M7.52668 8.23864H6.73122V9.03409H7.52668V8.23864Z" fill="black"/>
<path d="M9.11759 8.23864H8.32213V9.03409H9.11759V8.23864Z" fill="black"/>
<path d="M9.91304 8.23864H9.11759V9.03409H9.91304V8.23864Z" fill="black"/>
<path d="M10.7085 8.23864H9.91304V9.03409H10.7085V8.23864Z" fill="black"/>
<path d="M12.2994 8.23864H11.504V9.03409H12.2994V8.23864Z" fill="black"/>
<path d="M13.0949 8.23864H12.2994V9.03409H13.0949V8.23864Z" fill="black"/>
<path d="M14.6858 8.23864H13.8903V9.03409H14.6858V8.23864Z" fill="black"/>
<path d="M18.663 8.23864H17.8676V9.03409H18.663V8.23864Z" fill="black"/>
<path d="M22.6403 8.23864H21.8449V9.03409H22.6403V8.23864Z" fill="black"/>
<path d="M24.2312 8.23864H23.4358V9.03409H24.2312V8.23864Z" fill="black"/>
<path d="M25.8221 8.23864H25.0267V9.03409H25.8221V8.23864Z" fill="black"/>
<path d="M28.2085 8.23864H27.413V9.03409H28.2085V8.23864Z" fill="black"/>
<path d="M3.54941 9.03409H2.75395V9.82955H3.54941V9.03409Z" fill="black"/>
<path d="M5.14031 9.03409H4.34486V9.82955H5.14031V9.03409Z" fill="black"/>
<path d="M5.93577 9.03409H5.14031V9.82955H5.93577V9.03409Z" fill="black"/>
<path d="M6.73122 9.03409H5.93577V9.82955H6.73122V9.03409Z" fill="black"/>
<path d="M9.11759 9.03409H8.32213V9.82955H9.11759V9.03409Z" fill="black"/>
<path d="M12.2994 9.03409H11.504V9.82955H12.2994V9.03409Z" fill="black"/>
<path d="M13.0949 9.03409H12.2994V9.82955H13.0949V9.03409Z" fill="black"/>
<path d="M14.6858 9.03409H13.8903V9.82955H14.6858V9.03409Z" fill="black"/>
<path d="M16.2767 9.03409H15.4812V9.82955H16.2767V9.03409Z" fill="black"/>
<path d="M19.4585 9.03409H18.663V9.82955H19.4585V9.03409Z" fill="black"/>
<path d="M20.254 9.03409H19.4585V9.82955H20.254V9.03409Z" fill="black"/>
<path d="M21.8449 9.03409H21.0494V9.82955H21.8449V9.03409Z" fill="black"/>
<path d="M24.2312 9.03409H23.4358V9.82955H24.2312V9.03409Z" fill="black"/>
<path d="M25.8221 9.03409H25.0267V9.82955H25.8221V9.03409Z" fill="black"/>
<path d="M28.2085 9.03409H27.413V9.82955H28.2085V9.03409Z" fill="black"/>
<path d="M2.75395 9.82955H1.9585V10.625H2.75395V9.82955Z" fill="black"/>
<path d="M5.93577 9.82955H5.14031V10.625H5.93577V9.82955Z" fill="black"/>
<path d="M7.52668 9.82955H6.73122V10.625H7.52668V9.82955Z" fill="black"/>
<path d="M9.11759 9.82955H8.32213V10.625H9.11759V9.82955Z" fill="black"/>
<path d="M10.7085 9.82955H9.91304V10.625H10.7085V9.82955Z" fill="black"/>
<path d="M12.2994 9.82955H11.504V10.625H12.2994V9.82955Z" fill="black"/>
<path d="M15.4812 9.82955H14.6858V10.625H15.4812V9.82955Z" fill="black"/>
<path d="M16.2767 9.82955H15.4812V10.625H16.2767V9.82955Z" fill="black"/>
<path d="M17.0721 9.82955H16.2767V10.625H17.0721V9.82955Z" fill="black"/>
<path d="M17.8676 9.82955H17.0721V10.625H17.8676V9.82955Z" fill="black"/>
<path d="M20.254 9.82955H19.4585V10.625H20.254V9.82955Z" fill="black"/>
<path d="M21.8449 9.82955H21.0494V10.625H21.8449V9.82955Z" fill="black"/>
<path d="M22.6403 9.82955H21.8449V10.625H22.6403V9.82955Z" fill="black"/>
<path d="M23.4358 9.82955H22.6403V10.625H23.4358V9.82955Z" fill="black"/>
<path d="M24.2312 9.82955H23.4358V10.625H24.2312V9.82955Z" fill="black"/>
<path d="M25.0267 9.82955H24.2312V10.625H25.0267V9.82955Z" fill="black"/>
<path d="M26.6176 9.82955H25.8221V10.625H26.6176V9.82955Z" fill="black"/>
<path d="M27.413 9.82955H26.6176V10.625H27.413V9.82955Z" fill="black"/>
<path d="M28.2085 9.82955H27.413V10.625H28.2085V9.82955Z" fill="black"/>
<path d="M3.54941 10.625H2.75395V11.4205H3.54941V10.625Z" fill="black"/>
<path d="M6.73122 10.625H5.93577V11.4205H6.73122V10.625Z" fill="black"/>
<path d="M8.32213 10.625H7.52668V11.4205H8.32213V10.625Z" fill="black"/>
<path d="M10.7085 10.625H9.91304V11.4205H10.7085V10.625Z" fill="black"/>
<path d="M13.0949 10.625H12.2994V11.4205H13.0949V10.625Z" fill="black"/>
<path d="M13.8903 10.625H13.0949V11.4205H13.8903V10.625Z" fill="black"/>
<path d="M14.6858 10.625H13.8903V11.4205H14.6858V10.625Z" fill="black"/>
<path d="M16.2767 10.625H15.4812V11.4205H16.2767V10.625Z" fill="black"/>
<path d="M17.8676 10.625H17.0721L17.0721 11.4205H17.8676V10.625Z" fill="black"/>
<path d="M18.663 10.625H17.8676V11.4205H18.663V10.625Z" fill="black"/>
<path d="M21.0494 10.625H20.254V11.4205H21.0494V10.625Z" fill="black"/>
<path d="M21.8449 10.625H21.0494V11.4205H21.8449V10.625Z" fill="black"/>
<path d="M25.0267 10.625H24.2312V11.4205H25.0267V10.625Z" fill="black"/>
<path d="M26.6176 10.625H25.8221V11.4205H26.6176V10.625Z" fill="black"/>
<path d="M27.413 10.625H26.6176V11.4205H27.413V10.625Z" fill="black"/>
<path d="M3.54941 11.4205H2.75395V12.2159H3.54941V11.4205Z" fill="black"/>
<path d="M4.34486 11.4205H3.54941V12.2159H4.34486V11.4205Z" fill="black"/>
<path d="M7.52668 11.4205H6.73122V12.2159H7.52668V11.4205Z" fill="black"/>
<path d="M9.11759 11.4205H8.32213V12.2159H9.11759V11.4205Z" fill="black"/>
<path d="M10.7085 11.4205H9.91304V12.2159H10.7085V11.4205Z" fill="black"/>
<path d="M12.2994 11.4205H11.504V12.2159H12.2994V11.4205Z" fill="black"/>
<path d="M13.8903 11.4205H13.0949V12.2159H13.8903V11.4205Z" fill="black"/>
<path d="M16.2767 11.4205H15.4812V12.2159H16.2767V11.4205Z" fill="black"/>
<path d="M17.8676 11.4205H17.0721V12.2159H17.8676V11.4205Z" fill="black"/>
<path d="M18.663 11.4205H17.8676V12.2159H18.663V11.4205Z" fill="black"/>
<path d="M19.4585 11.4205H18.663V12.2159H19.4585V11.4205Z" fill="black"/>
<path d="M25.0267 11.4205H24.2312V12.2159H25.0267V11.4205Z" fill="black"/>
<path d="M25.8221 11.4205H25.0267V12.2159H25.8221V11.4205Z" fill="black"/>
<path d="M5.14031 12.2159H4.34486V13.0114H5.14031V12.2159Z" fill="black"/>
<path d="M5.93577 12.2159H5.14031V13.0114H5.93577V12.2159Z" fill="black"/>
<path d="M9.11759 12.2159H8.32213V13.0114H9.11759V12.2159Z" fill="black"/>
<path d="M13.0949 12.2159H12.2994V13.0114H13.0949V12.2159Z" fill="black"/>
<path d="M13.8903 12.2159H13.0949V13.0114H13.8903V12.2159Z" fill="black"/>
<path d="M15.4812 12.2159H14.6858V13.0114H15.4812V12.2159Z" fill="black"/>
<path d="M17.0721 12.2159H16.2767V13.0114H17.0721L17.0721 12.2159Z" fill="black"/>
<path d="M18.663 12.2159H17.8676V13.0114H18.663V12.2159Z" fill="black"/>
<path d="M20.254 12.2159H19.4585V13.0114H20.254V12.2159Z" fill="black"/>
<path d="M21.0494 12.2159H20.254V13.0114H21.0494V12.2159Z" fill="black"/>
<path d="M22.6403 12.2159H21.8449V13.0114H22.6403V12.2159Z" fill="black"/>
<path d="M24.2312 12.2159H23.4358V13.0114H24.2312V12.2159Z" fill="black"/>
<path d="M25.8221 12.2159H25.0267V13.0114H25.8221V12.2159Z" fill="black"/>
<path d="M26.6176 12.2159H25.8221V13.0114H26.6176V12.2159Z" fill="black"/>
<path d="M27.413 12.2159H26.6176V13.0114H27.413V12.2159Z" fill="black"/>
<path d="M4.34486 13.0114H3.54941V13.8068H4.34486V13.0114Z" fill="black"/>
<path d="M6.73122 13.0114H5.93577V13.8068H6.73122V13.0114Z" fill="black"/>
<path d="M7.52668 13.0114H6.73122V13.8068H7.52668V13.0114Z" fill="black"/>
<path d="M9.11759 13.0114H8.32213V13.8068H9.11759V13.0114Z" fill="black"/>
<path d="M11.504 13.0114H10.7085V13.8068H11.504V13.0114Z" fill="black"/>
<path d="M13.8903 13.0114H13.0949V13.8068H13.8903V13.0114Z" fill="black"/>
<path d="M14.6858 13.0114H13.8903V13.8068H14.6858V13.0114Z" fill="black"/>
<path d="M15.4812 13.0114H14.6858V13.8068H15.4812V13.0114Z" fill="black"/>
<path d="M16.2767 13.0114H15.4812V13.8068H16.2767V13.0114Z" fill="black"/>
<path d="M18.663 13.0114H17.8676V13.8068H18.663V13.0114Z" fill="black"/>
<path d="M19.4585 13.0114H18.663V13.8068H19.4585V13.0114Z" fill="black"/>
<path d="M20.254 13.0114H19.4585V13.8068H20.254V13.0114Z" fill="black"/>
<path d="M23.4358 13.0114H22.6403V13.8068H23.4358V13.0114Z" fill="black"/>
<path d="M24.2312 13.0114H23.4358V13.8068H24.2312V13.0114Z" fill="black"/>
<path d="M25.8221 13.0114H25.0267V13.8068H25.8221V13.0114Z" fill="black"/>
<path d="M26.6176 13.0114H25.8221V13.8068H26.6176V13.0114Z" fill="black"/>
<path d="M27.413 13.0114H26.6176V13.8068H27.413V13.0114Z" fill="black"/>
<path d="M28.2085 13.0114H27.413V13.8068H28.2085V13.0114Z" fill="black"/>
<path d="M2.75395 13.8068H1.9585V14.6023H2.75395V13.8068Z" fill="black"/>
<path d="M3.54941 13.8068H2.75395V14.6023H3.54941V13.8068Z" fill="black"/>
<path d="M4.34486 13.8068H3.54941V14.6023H4.34486V13.8068Z" fill="black"/>
<path d="M5.14031 13.8068H4.34486V14.6023H5.14031V13.8068Z" fill="black"/>
<path d="M9.11759 13.8068H8.32213V14.6023H9.11759V13.8068Z" fill="black"/>
<path d="M12.2994 13.8068H11.504V14.6023H12.2994V13.8068Z" fill="black"/>
<path d="M13.0949 13.8068H12.2994V14.6023H13.0949V13.8068Z" fill="black"/>
<path d="M14.6858 13.8068H13.8903V14.6023H14.6858V13.8068Z" fill="black"/>
<path d="M18.663 13.8068H17.8676V14.6023H18.663V13.8068Z" fill="black"/>
<path d="M19.4585 13.8068H18.663V14.6023H19.4585V13.8068Z" fill="black"/>
<path d="M20.254 13.8068H19.4585V14.6023H20.254V13.8068Z" fill="black"/>
<path d="M21.8449 13.8068H21.0494V14.6023H21.8449V13.8068Z" fill="black"/>
<path d="M24.2312 13.8068H23.4358V14.6023H24.2312V13.8068Z" fill="black"/>
<path d="M25.8221 13.8068H25.0267V14.6023H25.8221V13.8068Z" fill="black"/>
<path d="M27.413 13.8068H26.6176V14.6023H27.413V13.8068Z" fill="black"/>
<path d="M5.93577 14.6023H5.14031V15.3977H5.93577V14.6023Z" fill="black"/>
<path d="M7.52668 14.6023H6.73122V15.3977H7.52668V14.6023Z" fill="black"/>
<path d="M9.11759 14.6023H8.32213V15.3977H9.11759V14.6023Z" fill="black"/>
<path d="M9.91304 14.6023H9.11759V15.3977H9.91304V14.6023Z" fill="black"/>
<path d="M11.504 14.6023H10.7085V15.3977H11.504V14.6023Z" fill="black"/>
<path d="M13.0949 14.6023H12.2994V15.3977H13.0949V14.6023Z" fill="black"/>
<path d="M16.2767 14.6023H15.4812V15.3977H16.2767V14.6023Z" fill="black"/>
<path d="M17.0721 14.6023H16.2767V15.3977H17.0721V14.6023Z" fill="black"/>
<path d="M18.663 14.6023H17.8676V15.3977H18.663V14.6023Z" fill="black"/>
<path d="M19.4585 14.6023H18.663V15.3977H19.4585V14.6023Z" fill="black"/>
<path d="M21.0494 14.6023H20.254V15.3977H21.0494V14.6023Z" fill="black"/>
<path d="M21.8449 14.6023H21.0494V15.3977H21.8449V14.6023Z" fill="black"/>
<path d="M22.6403 14.6023H21.8449V15.3977H22.6403V14.6023Z" fill="black"/>
<path d="M24.2312 14.6023H23.4358V15.3977H24.2312V14.6023Z" fill="black"/>
<path d="M25.0267 14.6023H24.2312V15.3977H25.0267V14.6023Z" fill="black"/>
<path d="M27.413 14.6023H26.6176V15.3977H27.413V14.6023Z" fill="black"/>
<path d="M2.75395 15.3977H1.9585V16.1932H2.75395V15.3977Z" fill="black"/>
<path d="M4.34486 15.3977H3.54941V16.1932H4.34486V15.3977Z" fill="black"/>
<path d="M8.32213 15.3977H7.52668V16.1932H8.32213V15.3977Z" fill="black"/>
<path d="M12.2994 15.3977H11.504V16.1932H12.2994V15.3977Z" fill="black"/>
<path d="M13.8903 15.3977H13.0949V16.1932H13.8903V15.3977Z" fill="black"/>
<path d="M14.6858 15.3977H13.8903V16.1932H14.6858V15.3977Z" fill="black"/>
<path d="M15.4812 15.3977H14.6858V16.1932H15.4812V15.3977Z" fill="black"/>
<path d="M16.2767 15.3977H15.4812V16.1932H16.2767V15.3977Z" fill="black"/>
<path d="M17.0721 15.3977H16.2767V16.1932H17.0721V15.3977Z" fill="black"/>
<path d="M17.8676 15.3977H17.0721V16.1932H17.8676V15.3977Z" fill="black"/>
<path d="M18.663 15.3977H17.8676V16.1932H18.663V15.3977Z" fill="black"/>
<path d="M21.8449 15.3977H21.0494V16.1932H21.8449V15.3977Z" fill="black"/>
<path d="M25.8221 15.3977H25.0267V16.1932H25.8221V15.3977Z" fill="black"/>
<path d="M27.413 15.3977H26.6176V16.1932H27.413V15.3977Z" fill="black"/>
<path d="M3.54941 16.1932H2.75395V16.9886H3.54941V16.1932Z" fill="black"/>
<path d="M5.14031 16.1932H4.34486V16.9886H5.14031V16.1932Z" fill="black"/>
<path d="M5.93577 16.1932H5.14031V16.9886H5.93577V16.1932Z" fill="black"/>
<path d="M7.52668 16.1932H6.73122V16.9886H7.52668V16.1932Z" fill="black"/>
<path d="M9.11759 16.1932H8.32213V16.9886H9.11759V16.1932Z" fill="black"/>
<path d="M9.91304 16.1932H9.11759V16.9886H9.91304V16.1932Z" fill="black"/>
<path d="M10.7085 16.1932H9.91304V16.9886H10.7085V16.1932Z" fill="black"/>
<path d="M11.504 16.1932H10.7085V16.9886H11.504V16.1932Z" fill="black"/>
<path d="M13.8903 16.1932H13.0949V16.9886H13.8903V16.1932Z" fill="black"/>
<path d="M15.4812 16.1932H14.6858V16.9886H15.4812V16.1932Z" fill="black"/>
<path d="M18.663 16.1932H17.8676V16.9886H18.663V16.1932Z" fill="black"/>
<path d="M21.0494 16.1932H20.254V16.9886H21.0494V16.1932Z" fill="black"/>
<path d="M21.8449 16.1932H21.0494V16.9886H21.8449V16.1932Z" fill="black"/>
<path d="M22.6403 16.1932H21.8449V16.9886H22.6403V16.1932Z" fill="black"/>
<path d="M26.6176 16.1932H25.8221V16.9886H26.6176V16.1932Z" fill="black"/>
<path d="M27.413 16.1932H26.6176V16.9886H27.413V16.1932Z" fill="black"/>
<path d="M28.2085 16.1932H27.413V16.9886H28.2085V16.1932Z" fill="black"/>
<path d="M2.75395 16.9886L1.9585 16.9886V17.7841H2.75395V16.9886Z" fill="black"/>
<path d="M4.34486 16.9886H3.54941V17.7841H4.34486V16.9886Z" fill="black"/>
<path d="M5.14031 16.9886H4.34486V17.7841H5.14031V16.9886Z" fill="black"/>
<path d="M5.93577 16.9886H5.14031V17.7841H5.93577V16.9886Z" fill="black"/>
<path d="M6.73122 16.9886H5.93577V17.7841H6.73122V16.9886Z" fill="black"/>
<path d="M8.32213 16.9886H7.52668V17.7841H8.32213V16.9886Z" fill="black"/>
<path d="M9.11759 16.9886H8.32213V17.7841H9.11759V16.9886Z" fill="black"/>
<path d="M10.7085 16.9886H9.91304V17.7841H10.7085V16.9886Z" fill="black"/>
<path d="M11.504 16.9886H10.7085V17.7841H11.504V16.9886Z" fill="black"/>
<path d="M12.2994 16.9886L11.504 16.9886V17.7841H12.2994V16.9886Z" fill="black"/>
<path d="M13.0949 16.9886L12.2994 16.9886V17.7841H13.0949V16.9886Z" fill="black"/>
<path d="M15.4812 16.9886H14.6858V17.7841H15.4812V16.9886Z" fill="black"/>
<path d="M17.8676 16.9886L17.0721 16.9886V17.7841H17.8676V16.9886Z" fill="black"/>
<path d="M20.254 16.9886L19.4585 16.9886V17.7841H20.254V16.9886Z" fill="black"/>
<path d="M21.0494 16.9886H20.254V17.7841H21.0494V16.9886Z" fill="black"/>
<path d="M21.8449 16.9886H21.0494V17.7841H21.8449V16.9886Z" fill="black"/>
<path d="M22.6403 16.9886H21.8449V17.7841H22.6403V16.9886Z" fill="black"/>
<path d="M24.2312 16.9886H23.4358V17.7841H24.2312V16.9886Z" fill="black"/>
<path d="M25.0267 16.9886H24.2312V17.7841H25.0267V16.9886Z" fill="black"/>
<path d="M27.413 16.9886H26.6176V17.7841H27.413V16.9886Z" fill="black"/>
<path d="M2.75395 17.7841H1.9585V18.5795H2.75395V17.7841Z" fill="black"/>
<path d="M5.14031 17.7841H4.34486V18.5795H5.14031V17.7841Z" fill="black"/>
<path d="M6.73122 17.7841H5.93577V18.5795H6.73122V17.7841Z" fill="black"/>
<path d="M7.52668 17.7841H6.73122V18.5795H7.52668V17.7841Z" fill="black"/>
<path d="M8.32213 17.7841H7.52668V18.5795H8.32213V17.7841Z" fill="black"/>
<path d="M9.11759 17.7841H8.32213V18.5795H9.11759V17.7841Z" fill="black"/>
<path d="M12.2994 17.7841H11.504V18.5795H12.2994V17.7841Z" fill="black"/>
<path d="M13.0949 17.7841H12.2994V18.5795H13.0949V17.7841Z" fill="black"/>
<path d="M13.8903 17.7841H13.0949V18.5795H13.8903V17.7841Z" fill="black"/>
<path d="M14.6858 17.7841H13.8903V18.5795H14.6858V17.7841Z" fill="black"/>
<path d="M15.4812 17.7841H14.6858V18.5795H15.4812V17.7841Z" fill="black"/>
<path d="M16.2767 17.7841H15.4812V18.5795H16.2767V17.7841Z" fill="black"/>
<path d="M17.8676 17.7841H17.0721V18.5795H17.8676V17.7841Z" fill="black"/>
<path d="M19.4585 17.7841H18.663V18.5795H19.4585V17.7841Z" fill="black"/>
<path d="M21.0494 17.7841H20.254V18.5795H21.0494V17.7841Z" fill="black"/>
<path d="M24.2312 17.7841H23.4358V18.5795H24.2312V17.7841Z" fill="black"/>
<path d="M25.0267 17.7841H24.2312V18.5795H25.0267V17.7841Z" fill="black"/>
<path d="M28.2085 17.7841H27.413V18.5795H28.2085V17.7841Z" fill="black"/>
<path d="M3.54941 18.5795H2.75395V19.375H3.54941V18.5795Z" fill="black"/>
<path d="M6.73122 18.5795H5.93577V19.375H6.73122V18.5795Z" fill="black"/>
<path d="M8.32213 18.5795H7.52668V19.375H8.32213V18.5795Z" fill="black"/>
<path d="M9.11759 18.5795H8.32213V19.375H9.11759V18.5795Z" fill="black"/>
<path d="M9.91304 18.5795H9.11759V19.375H9.91304V18.5795Z" fill="black"/>
<path d="M10.7085 18.5795H9.91304V19.375H10.7085V18.5795Z" fill="black"/>
<path d="M11.504 18.5795H10.7085V19.375H11.504V18.5795Z" fill="black"/>
<path d="M12.2994 18.5795H11.504V19.375H12.2994V18.5795Z" fill="black"/>
<path d="M13.0949 18.5795H12.2994V19.375H13.0949V18.5795Z" fill="black"/>
<path d="M14.6858 18.5795H13.8903V19.375H14.6858V18.5795Z" fill="black"/>
<path d="M15.4812 18.5795H14.6858V19.375H15.4812V18.5795Z" fill="black"/>
<path d="M16.2767 18.5795H15.4812V19.375H16.2767V18.5795Z" fill="black"/>
<path d="M17.0721 18.5795H16.2767V19.375H17.0721L17.0721 18.5795Z" fill="black"/>
<path d="M17.8676 18.5795H17.0721L17.0721 19.375H17.8676V18.5795Z" fill="black"/>
<path d="M18.663 18.5795H17.8676V19.375H18.663V18.5795Z" fill="black"/>
<path d="M21.0494 18.5795H20.254V19.375H21.0494V18.5795Z" fill="black"/>
<path d="M21.8449 18.5795H21.0494V19.375H21.8449V18.5795Z" fill="black"/>
<path d="M23.4358 18.5795H22.6403V19.375H23.4358V18.5795Z" fill="black"/>
<path d="M24.2312 18.5795H23.4358V19.375H24.2312V18.5795Z" fill="black"/>
<path d="M25.0267 18.5795H24.2312V19.375H25.0267V18.5795Z" fill="black"/>
<path d="M25.8221 18.5795H25.0267V19.375H25.8221V18.5795Z" fill="black"/>
<path d="M27.413 18.5795H26.6176V19.375H27.413V18.5795Z" fill="black"/>
<path d="M28.2085 18.5795H27.413V19.375H28.2085V18.5795Z" fill="black"/>
<path d="M5.14031 19.375H4.34486V20.1705H5.14031V19.375Z" fill="black"/>
<path d="M5.93577 19.375H5.14031V20.1705H5.93577V19.375Z" fill="black"/>
<path d="M6.73122 19.375H5.93577V20.1705H6.73122V19.375Z" fill="black"/>
<path d="M7.52668 19.375H6.73122V20.1705H7.52668V19.375Z" fill="black"/>
<path d="M8.32213 19.375H7.52668V20.1705H8.32213V19.375Z" fill="black"/>
<path d="M9.11759 19.375H8.32213V20.1705H9.11759V19.375Z" fill="black"/>
<path d="M9.91304 19.375H9.11759V20.1705H9.91304V19.375Z" fill="black"/>
<path d="M14.6858 19.375H13.8903V20.1705H14.6858V19.375Z" fill="black"/>
<path d="M17.0721 19.375H16.2767V20.1705H17.0721V19.375Z" fill="black"/>
<path d="M18.663 19.375H17.8676V20.1705H18.663V19.375Z" fill="black"/>
<path d="M20.254 19.375H19.4585V20.1705H20.254V19.375Z" fill="black"/>
<path d="M21.0494 19.375H20.254V20.1705H21.0494V19.375Z" fill="black"/>
<path d="M21.8449 19.375H21.0494V20.1705H21.8449V19.375Z" fill="black"/>
<path d="M24.2312 19.375H23.4358V20.1705H24.2312V19.375Z" fill="black"/>
<path d="M25.0267 19.375H24.2312V20.1705H25.0267V19.375Z" fill="black"/>
<path d="M25.8221 19.375H25.0267V20.1705H25.8221V19.375Z" fill="black"/>
<path d="M26.6176 19.375H25.8221V20.1705H26.6176V19.375Z" fill="black"/>
<path d="M28.2085 19.375H27.413V20.1705H28.2085V19.375Z" fill="black"/>
<path d="M2.75395 20.1705H1.9585V20.9659H2.75395V20.1705Z" fill="black"/>
<path d="M3.54941 20.1705H2.75395V20.9659H3.54941V20.1705Z" fill="black"/>
<path d="M4.34486 20.1705H3.54941V20.9659H4.34486V20.1705Z" fill="black"/>
<path d="M5.93577 20.1705H5.14031V20.9659H5.93577V20.1705Z" fill="black"/>
<path d="M9.11759 20.1705H8.32213V20.9659H9.11759V20.1705Z" fill="black"/>
<path d="M11.504 20.1705H10.7085V20.9659H11.504V20.1705Z" fill="black"/>
<path d="M13.8903 20.1705H13.0949V20.9659H13.8903V20.1705Z" fill="black"/>
<path d="M14.6858 20.1705H13.8903V20.9659H14.6858V20.1705Z" fill="black"/>
<path d="M16.2767 20.1705H15.4812V20.9659H16.2767V20.1705Z" fill="black"/>
<path d="M18.663 20.1705H17.8676V20.9659H18.663V20.1705Z" fill="black"/>
<path d="M21.0494 20.1705H20.254V20.9659H21.0494V20.1705Z" fill="black"/>
<path d="M21.8449 20.1705H21.0494V20.9659H21.8449V20.1705Z" fill="black"/>
<path d="M24.2312 20.1705H23.4358V20.9659H24.2312V20.1705Z" fill="black"/>
<path d="M25.8221 20.1705H25.0267V20.9659H25.8221V20.1705Z" fill="black"/>
<path d="M26.6176 20.1705H25.8221V20.9659H26.6176V20.1705Z" fill="black"/>
<path d="M27.413 20.1705H26.6176V20.9659H27.413V20.1705Z" fill="black"/>
<path d="M28.2085 20.1705H27.413V20.9659H28.2085V20.1705Z" fill="black"/>
<path d="M2.75395 20.9659H1.9585V21.7614H2.75395V20.9659Z" fill="black"/>
<path d="M3.54941 20.9659H2.75395V21.7614H3.54941V20.9659Z" fill="black"/>
<path d="M6.73122 20.9659H5.93577V21.7614H6.73122V20.9659Z" fill="black"/>
<path d="M7.52668 20.9659H6.73122V21.7614H7.52668V20.9659Z" fill="black"/>
<path d="M9.11759 20.9659H8.32213V21.7614H9.11759V20.9659Z" fill="black"/>
<path d="M10.7085 20.9659H9.91304V21.7614H10.7085V20.9659Z" fill="black"/>
<path d="M13.0949 20.9659H12.2994V21.7614H13.0949V20.9659Z" fill="black"/>
<path d="M14.6858 20.9659H13.8903V21.7614H14.6858V20.9659Z" fill="black"/>
<path d="M17.0721 20.9659H16.2767V21.7614H17.0721V20.9659Z" fill="black"/>
<path d="M19.4585 20.9659H18.663V21.7614H19.4585V20.9659Z" fill="black"/>
<path d="M21.0494 20.9659H20.254V21.7614H21.0494V20.9659Z" fill="black"/>
<path d="M21.8449 20.9659H21.0494V21.7614H21.8449V20.9659Z" fill="black"/>
<path d="M22.6403 20.9659H21.8449V21.7614H22.6403V20.9659Z" fill="black"/>
<path d="M23.4358 20.9659H22.6403V21.7614H23.4358V20.9659Z" fill="black"/>
<path d="M24.2312 20.9659H23.4358V21.7614H24.2312V20.9659Z" fill="black"/>
<path d="M25.0267 20.9659H24.2312V21.7614H25.0267V20.9659Z" fill="black"/>
<path d="M26.6176 20.9659H25.8221V21.7614H26.6176V20.9659Z" fill="black"/>
<path d="M27.413 20.9659H26.6176V21.7614H27.413V20.9659Z" fill="black"/>
<path d="M28.2085 20.9659H27.413V21.7614H28.2085V20.9659Z" fill="black"/>
<path d="M9.11759 21.7614H8.32213V22.5568H9.11759V21.7614Z" fill="black"/>
<path d="M9.91304 21.7614H9.11759V22.5568H9.91304V21.7614Z" fill="black"/>
<path d="M10.7085 21.7614H9.91304V22.5568H10.7085V21.7614Z" fill="black"/>
<path d="M12.2994 21.7614H11.504V22.5568H12.2994V21.7614Z" fill="black"/>
<path d="M13.0949 21.7614H12.2994V22.5568H13.0949V21.7614Z" fill="black"/>
<path d="M13.8903 21.7614H13.0949V22.5568H13.8903V21.7614Z" fill="black"/>
<path d="M16.2767 21.7614H15.4812V22.5568H16.2767V21.7614Z" fill="black"/>
<path d="M18.663 21.7614H17.8676V22.5568H18.663V21.7614Z" fill="black"/>
<path d="M20.254 21.7614H19.4585V22.5568H20.254V21.7614Z" fill="black"/>
<path d="M21.8449 21.7614H21.0494V22.5568H21.8449V21.7614Z" fill="black"/>
<path d="M25.0267 21.7614H24.2312V22.5568H25.0267V21.7614Z" fill="black"/>
<path d="M25.8221 21.7614H25.0267V22.5568H25.8221V21.7614Z" fill="black"/>
<path d="M26.6176 21.7614H25.8221V22.5568H26.6176V21.7614Z" fill="black"/>
<path d="M2.75395 22.5568H1.9585V23.3523H2.75395V22.5568Z" fill="black"/>
<path d="M3.54941 22.5568H2.75395V23.3523H3.54941V22.5568Z" fill="black"/>
<path d="M4.34486 22.5568H3.54941V23.3523H4.34486V22.5568Z" fill="black"/>
<path d="M5.14031 22.5568H4.34486V23.3523H5.14031V22.5568Z" fill="black"/>
<path d="M5.93577 22.5568H5.14031V23.3523H5.93577V22.5568Z" fill="black"/>
<path d="M6.73122 22.5568H5.93577V23.3523H6.73122V22.5568Z" fill="black"/>
<path d="M7.52668 22.5568H6.73122V23.3523H7.52668V22.5568Z" fill="black"/>
<path d="M9.91304 22.5568H9.11759V23.3523H9.91304V22.5568Z" fill="black"/>
<path d="M10.7085 22.5568H9.91304V23.3523H10.7085V22.5568Z" fill="black"/>
<path d="M11.504 22.5568H10.7085V23.3523H11.504V22.5568Z" fill="black"/>
<path d="M12.2994 22.5568H11.504V23.3523H12.2994V22.5568Z" fill="black"/>
<path d="M13.0949 22.5568H12.2994V23.3523H13.0949V22.5568Z" fill="black"/>
<path d="M13.8903 22.5568H13.0949V23.3523H13.8903V22.5568Z" fill="black"/>
<path d="M14.6858 22.5568H13.8903V23.3523H14.6858V22.5568Z" fill="black"/>
<path d="M15.4812 22.5568H14.6858V23.3523H15.4812V22.5568Z" fill="black"/>
<path d="M17.0721 22.5568H16.2767V23.3523H17.0721V22.5568Z" fill="black"/>
<path d="M19.4585 22.5568H18.663V23.3523H19.4585V22.5568Z" fill="black"/>
<path d="M20.254 22.5568H19.4585V23.3523H20.254V22.5568Z" fill="black"/>
<path d="M21.0494 22.5568H20.254V23.3523H21.0494V22.5568Z" fill="black"/>
<path d="M21.8449 22.5568H21.0494V23.3523H21.8449V22.5568Z" fill="black"/>
<path d="M23.4358 22.5568H22.6403V23.3523H23.4358V22.5568Z" fill="black"/>
<path d="M25.0267 22.5568H24.2312V23.3523H25.0267V22.5568Z" fill="black"/>
<path d="M25.8221 22.5568H25.0267V23.3523H25.8221V22.5568Z" fill="black"/>
<path d="M2.75395 23.3523H1.9585V24.1477H2.75395V23.3523Z" fill="black"/>
<path d="M7.52668 23.3523H6.73122V24.1477H7.52668V23.3523Z" fill="black"/>
<path d="M9.11759 23.3523H8.32213V24.1477H9.11759V23.3523Z" fill="black"/>
<path d="M9.91304 23.3523H9.11759V24.1477H9.91304V23.3523Z" fill="black"/>
<path d="M10.7085 23.3523H9.91304V24.1477H10.7085V23.3523Z" fill="black"/>
<path d="M16.2767 23.3523H15.4812V24.1477H16.2767V23.3523Z" fill="black"/>
<path d="M17.8676 23.3523H17.0721L17.0721 24.1477H17.8676V23.3523Z" fill="black"/>
<path d="M19.4585 23.3523H18.663V24.1477H19.4585V23.3523Z" fill="black"/>
<path d="M20.254 23.3523H19.4585V24.1477H20.254V23.3523Z" fill="black"/>
<path d="M21.8449 23.3523H21.0494V24.1477H21.8449V23.3523Z" fill="black"/>
<path d="M25.0267 23.3523H24.2312V24.1477H25.0267V23.3523Z" fill="black"/>
<path d="M2.75395 24.1477H1.9585V24.9432H2.75395V24.1477Z" fill="black"/>
<path d="M4.34486 24.1477H3.54941V24.9432H4.34486V24.1477Z" fill="black"/>
<path d="M5.14031 24.1477H4.34486V24.9432H5.14031V24.1477Z" fill="black"/>
<path d="M5.93577 24.1477H5.14031V24.9432H5.93577V24.1477Z" fill="black"/>
<path d="M7.52668 24.1477H6.73122V24.9432H7.52668V24.1477Z" fill="black"/>
<path d="M10.7085 24.1477H9.91304V24.9432H10.7085V24.1477Z" fill="black"/>
<path d="M11.504 24.1477H10.7085V24.9432H11.504V24.1477Z" fill="black"/>
<path d="M13.0949 24.1477H12.2994V24.9432H13.0949V24.1477Z" fill="black"/>
<path d="M14.6858 24.1477H13.8903V24.9432H14.6858V24.1477Z" fill="black"/>
<path d="M15.4812 24.1477H14.6858V24.9432H15.4812V24.1477Z" fill="black"/>
<path d="M21.8449 24.1477H21.0494V24.9432H21.8449V24.1477Z" fill="black"/>
<path d="M22.6403 24.1477H21.8449V24.9432H22.6403V24.1477Z" fill="black"/>
<path d="M23.4358 24.1477H22.6403V24.9432H23.4358V24.1477Z" fill="black"/>
<path d="M24.2312 24.1477H23.4358V24.9432H24.2312V24.1477Z" fill="black"/>
<path d="M25.0267 24.1477H24.2312V24.9432H25.0267V24.1477Z" fill="black"/>
<path d="M25.8221 24.1477H25.0267V24.9432H25.8221V24.1477Z" fill="black"/>
<path d="M26.6176 24.1477H25.8221V24.9432H26.6176V24.1477Z" fill="black"/>
<path d="M28.2085 24.1477H27.413V24.9432H28.2085V24.1477Z" fill="black"/>
<path d="M2.75395 24.9432H1.9585V25.7386H2.75395V24.9432Z" fill="black"/>
<path d="M4.34486 24.9432H3.54941V25.7386H4.34486V24.9432Z" fill="black"/>
<path d="M5.14031 24.9432H4.34486V25.7386H5.14031V24.9432Z" fill="black"/>
<path d="M5.93577 24.9432H5.14031V25.7386H5.93577V24.9432Z" fill="black"/>
<path d="M7.52668 24.9432H6.73122V25.7386H7.52668V24.9432Z" fill="black"/>
<path d="M11.504 24.9432H10.7085V25.7386H11.504V24.9432Z" fill="black"/>
<path d="M12.2994 24.9432H11.504V25.7386H12.2994V24.9432Z" fill="black"/>
<path d="M13.8903 24.9432H13.0949V25.7386H13.8903V24.9432Z" fill="black"/>
<path d="M15.4812 24.9432H14.6858V25.7386H15.4812V24.9432Z" fill="black"/>
<path d="M16.2767 24.9432H15.4812V25.7386H16.2767V24.9432Z" fill="black"/>
<path d="M19.4585 24.9432H18.663V25.7386H19.4585V24.9432Z" fill="black"/>
<path d="M21.0494 24.9432H20.254V25.7386H21.0494V24.9432Z" fill="black"/>
<path d="M22.6403 24.9432H21.8449V25.7386H22.6403V24.9432Z" fill="black"/>
<path d="M23.4358 24.9432H22.6403V25.7386H23.4358V24.9432Z" fill="black"/>
<path d="M25.0267 24.9432H24.2312V25.7386H25.0267V24.9432Z" fill="black"/>
<path d="M25.8221 24.9432H25.0267V25.7386H25.8221V24.9432Z" fill="black"/>
<path d="M26.6176 24.9432H25.8221V25.7386H26.6176V24.9432Z" fill="black"/>
<path d="M28.2085 24.9432H27.413V25.7386H28.2085V24.9432Z" fill="black"/>
<path d="M2.75395 25.7386H1.9585V26.5341H2.75395V25.7386Z" fill="black"/>
<path d="M4.34486 25.7386H3.54941V26.5341H4.34486V25.7386Z" fill="black"/>
<path d="M5.14031 25.7386H4.34486V26.5341H5.14031V25.7386Z" fill="black"/>
<path d="M5.93577 25.7386H5.14031V26.5341H5.93577V25.7386Z" fill="black"/>
<path d="M7.52668 25.7386H6.73122V26.5341H7.52668V25.7386Z" fill="black"/>
<path d="M10.7085 25.7386H9.91304V26.5341H10.7085V25.7386Z" fill="black"/>
<path d="M17.0721 25.7386H16.2767V26.5341H17.0721V25.7386Z" fill="black"/>
<path d="M23.4358 25.7386H22.6403V26.5341H23.4358V25.7386Z" fill="black"/>
<path d="M26.6176 25.7386H25.8221V26.5341H26.6176V25.7386Z" fill="black"/>
<path d="M2.75395 26.5341H1.9585V27.3295H2.75395V26.5341Z" fill="black"/>
<path d="M7.52668 26.5341H6.73122V27.3295H7.52668V26.5341Z" fill="black"/>
<path d="M9.91304 26.5341H9.11759V27.3295H9.91304V26.5341Z" fill="black"/>
<path d="M12.2994 26.5341H11.504V27.3295H12.2994V26.5341Z" fill="black"/>
<path d="M13.0949 26.5341H12.2994V27.3295H13.0949V26.5341Z" fill="black"/>
<path d="M13.8903 26.5341H13.0949V27.3295H13.8903V26.5341Z" fill="black"/>
<path d="M14.6858 26.5341H13.8903V27.3295H14.6858V26.5341Z" fill="black"/>
<path d="M15.4812 26.5341H14.6858V27.3295H15.4812V26.5341Z" fill="black"/>
<path d="M16.2767 26.5341H15.4812V27.3295H16.2767V26.5341Z" fill="black"/>
<path d="M17.8676 26.5341H17.0721L17.0721 27.3295H17.8676V26.5341Z" fill="black"/>
<path d="M19.4585 26.5341H18.663V27.3295H19.4585V26.5341Z" fill="black"/>
<path d="M21.8449 26.5341H21.0494V27.3295H21.8449V26.5341Z" fill="black"/>
<path d="M23.4358 26.5341H22.6403V27.3295H23.4358V26.5341Z" fill="black"/>
<path d="M28.2085 26.5341H27.413V27.3295H28.2085V26.5341Z" fill="black"/>
<path d="M2.75395 27.3295H1.9585V28.125H2.75395V27.3295Z" fill="black"/>
<path d="M3.54941 27.3295H2.75395V28.125H3.54941V27.3295Z" fill="black"/>
<path d="M4.34486 27.3295H3.54941V28.125H4.34486V27.3295Z" fill="black"/>
<path d="M5.14031 27.3295H4.34486V28.125H5.14031V27.3295Z" fill="black"/>
<path d="M5.93577 27.3295H5.14031V28.125H5.93577V27.3295Z" fill="black"/>
<path d="M6.73122 27.3295H5.93577V28.125H6.73122V27.3295Z" fill="black"/>
<path d="M7.52668 27.3295H6.73122V28.125H7.52668V27.3295Z" fill="black"/>
<path d="M9.91304 27.3295H9.11759V28.125H9.91304V27.3295Z" fill="black"/>
<path d="M10.7085 27.3295H9.91304V28.125H10.7085V27.3295Z" fill="black"/>
<path d="M11.504 27.3295H10.7085V28.125H11.504V27.3295Z" fill="black"/>
<path d="M13.0949 27.3295H12.2994V28.125H13.0949V27.3295Z" fill="black"/>
<path d="M17.0721 27.3295H16.2767V28.125H17.0721L17.0721 27.3295Z" fill="black"/>
<path d="M17.8676 27.3295H17.0721L17.0721 28.125H17.8676V27.3295Z" fill="black"/>
<path d="M18.663 27.3295H17.8676V28.125H18.663V27.3295Z" fill="black"/>
<path d="M19.4585 27.3295H18.663V28.125H19.4585V27.3295Z" fill="black"/>
<path d="M20.254 27.3295H19.4585V28.125H20.254V27.3295Z" fill="black"/>
<path d="M21.8449 27.3295H21.0494V28.125H21.8449V27.3295Z" fill="black"/>
<path d="M22.6403 27.3295H21.8449V28.125H22.6403V27.3295Z" fill="black"/>
<path d="M24.2312 27.3295H23.4358V28.125H24.2312V27.3295Z" fill="black"/>
<path d="M26.6176 27.3295H25.8221V28.125H26.6176V27.3295Z" fill="black"/>
</g>
<defs>
<clipPath id="clip0_673_2915">
<rect width="30" height="30" fill="white" transform="translate(0.0834961)"/>
</clipPath>
</defs>
</svg>
